# xmcd
#
# Track frame offsets:
#	182
#	12982
#	26932
#	40002
#	55277
#	69897
#	81750
#	95387
#	110140
#	127932
#	139622
#	152280
#	167690
#	180327
#	191467
#	203997
#	218442
#
# Disc length: 3076 seconds
#
# Revision: 0
# Processed by: cddbd v1.5.1PL0 Copyright (c) Steve Scherf et al.
# Submitted via: dBpowerAMP V4.0
#
DISCID=d60c0211
DTITLE=Original Artists - Country Love
DYEAR=1900
DGENRE=Country
TTITLE0=You're My Best Friend - Don Williams
TTITLE1=(If loving you is wrong) I Don't Want To Be Right - Barbara Mandrell
TTITLE2=Faded Love - Loretta Lynn
TTITLE3=Satin Sheets - Jeanne Pruett
TTITLE4=If I Said you Had A Beautiful Body Would You Hold It Against Me - Bellamy Brothers
TTITLE5=Crying - Waylon Jennings
TTITLE6=Feelin's - Conway Twitty and Loretta Lynn
TTITLE7=The Last One To Know - Reba McEntire
TTITLE8=The Wind Beneath My Wings - Lee Greenwood
TTITLE9=Sweet Dreams - Loretta Lynn
TTITLE10=Some Broken Hearts Never Mend - Don Williams
TTITLE11=For The Good Times - Kenny Rogers
TTITLE12=I Fall To Pieces - Patsy Cline
TTITLE13=It's Only Make Believe - Conway Twitty
TTITLE14=Funny Face - Donna Fargo
TTITLE15=If We're Not Back In Love By Monday - Merle Haggard
TTITLE16=You And Me
EXTD=
EXTT0=
EXTT1=
EXTT2=
EXTT3=
EXTT4=
EXTT5=
EXTT6=
EXTT7=
EXTT8=
EXTT9=
EXTT10=
EXTT11=
EXTT12=
EXTT13=
EXTT14=
EXTT15=
EXTT16=
PLAYORDER=
